<mxfile host="app.diagrams.net" agent="Mozilla/5.0 (X11; Linux x86_64) AppleWebKit/537.36 (KHTML, like Gecko) Chrome/129.0.0.0 Safari/537.36 Edg/129.0.0.0" version="24.8.6">
  <diagram name="ページ1" id="iWJXtaGH08x3Ocud6nt1">
    <mxGraphModel dx="431" dy="313" grid="1" gridSize="10" guides="1" tooltips="1" connect="1" arrows="1" fold="1" page="1" pageScale="1" pageWidth="827" pageHeight="1169" math="0" shadow="0">
      <root>
        <mxCell id="0" />
        <mxCell id="1" parent="0" />
        <mxCell id="5EeSDYnTrnJfVuIacY0O-1" value="" style="curved=1;endArrow=none;html=1;rounded=0;strokeWidth=15;strokeColor=#0066CC;startArrow=none;startFill=0;endFill=0;targetPerimeterSpacing=0;endSize=6;" edge="1" parent="1">
          <mxGeometry width="50" height="50" relative="1" as="geometry">
            <mxPoint x="360" y="160" as="sourcePoint" />
            <mxPoint x="360" y="230" as="targetPoint" />
            <Array as="points">
              <mxPoint x="310" y="210" />
              <mxPoint x="280" y="240" />
              <mxPoint x="240" y="220" />
              <mxPoint x="260" y="140" />
              <mxPoint x="290" y="120" />
              <mxPoint x="310" y="150" />
              <mxPoint x="310" y="240" />
              <mxPoint x="340" y="220" />
              <mxPoint x="340" y="120" />
              <mxPoint x="340" y="230" />
            </Array>
          </mxGeometry>
        </mxCell>
      </root>
    </mxGraphModel>
  </diagram>
</mxfile>
